<?xml version="1.0" standalone="no"?>
<!DOCTYPE svg PUBLIC "-//W3C//DTD SVG 20010904//EN"
 "http://www.w3.org/TR/2001/REC-SVG-20010904/DTD/svg10.dtd">
<svg version="1.0" xmlns="http://www.w3.org/2000/svg"
 width="512.000000pt" height="512.000000pt" viewBox="0 0 512.000000 512.000000"
 preserveAspectRatio="xMidYMid meet">
<metadata>
Created by potrace 1.14, written by Peter Selinger 2001-2017
</metadata>
<g transform="translate(0.000000,512.000000) scale(0.100000,-0.100000)"
fill="#000000" stroke="none">
<path d="M749 4201 c-108 -9 -120 -19 -151 -137 -38 -140 -56 -243 -54 -310 1
-51 4 -60 24 -70 13 -6 29 -17 35 -23 6 -6 17 -11 24 -11 7 0 31 -8 52 -17 29
-12 41 -24 45 -44 4 -23 12 -29 41 -35 23 -4 45 -2 59 6 31 16 58 10 71 -17 6
-11 16 -27 22 -34 14 -19 1 -51 -32 -77 -15 -12 -24 -26 -20 -32 3 -5 2 -10
-4 -10 -6 0 -8 -6 -5 -14 3 -7 -3 -17 -13 -20 -10 -4 -19 -2 -21 4 -2 6 -17 8
-37 4 -28 -5 -35 -2 -45 16 -7 13 -10 38 -7 56 6 38 -10 56 -28 31 -11 -16
-14 -15 -35 3 -13 11 -28 20 -34 20 -6 0 -21 16 -34 36 -13 19 -39 42 -57 50
-72 30 -74 28 -272 -173 -101 -104 -204 -214 -228 -245 l-45 -56 0 -637 0
-637 63 6 c140 14 544 23 882 19 198 -2 547 -5 775 -7 258 -3 437 -9 474 -16
92 -18 155 3 164 54 2 11 9 29 16 40 7 12 14 54 15 94 2 67 -1 78 -29 122 -17
26 -46 58 -65 71 -33 23 -93 128 -82 145 3 5 8 47 12 93 6 81 18 125 33 118 4
-1 19 -9 34 -16 41 -21 56 -9 63 51 7 58 -7 136 -31 173 -21 32 -9 70 26 85
36 15 90 -8 121 -52 19 -26 23 -28 41 -16 12 8 26 29 32 48 9 28 17 36 40 38
36 4 84 -15 97 -39 12 -23 38 -24 65 -4 26 20 53 19 53 -2 -1 -74 43 -158 88
-169 21 -6 31 -1 52 25 26 31 61 42 61 19 0 -7 3 -23 6 -35 5 -16 -1 -24 -23
-35 -31 -15 -40 -46 -23 -78 11 -20 13 -21 37 -5 23 16 25 15 38 -2 7 -10 11
-22 8 -26 -9 -15 -5 -79 6 -90 15 -15 -12 -55 -61 -92 -47 -35 -64 -64 -73
-125 -7 -46 3 -86 27 -111 8 -8 31 -42 52 -77 25 -42 50 -69 71 -79 21 -10 39
-30 51 -57 17 -36 25 -42 75 -57 31 -10 99 -22 151 -27 93 -9 95 -9 159 -61
35 -28 74 -54 87 -58 12 -3 22 -8 22 -12 0 -12 49 -31 80 -31 16 0 63 -11 105
-25 141 -46 184 -51 258 -31 66 18 86 33 150 109 21 25 25 26 36 13 12 -14 16
-14 42 5 16 11 29 26 29 34 0 7 16 19 35 25 39 13 55 35 55 77 0 16 7 39 16
51 22 31 11 70 -24 83 -35 13 -72 48 -72 68 -1 20 -61 51 -100 51 -21 0 -40
11 -65 38 -19 20 -35 42 -35 48 0 6 -9 21 -19 33 -14 16 -18 31 -14 60 3 23 1
41 -6 45 -7 5 -9 1 -5 -8 8 -22 -2 -20 -26 4 -22 22 -28 43 -30 110 -1 44 -1
44 -17 23 -21 -30 -68 -31 -76 -2 -3 11 -1 33 4 49 7 20 7 35 0 49 -15 27 11
41 64 34 59 -8 85 -20 79 -37 -9 -24 27 -33 120 -27 90 6 129 -4 125 -32 -3
-28 4 -36 54 -62 28 -15 60 -36 70 -46 10 -11 25 -19 35 -19 9 0 31 -8 47 -19
56 -34 103 -44 136 -31 16 7 29 17 29 23 0 6 3 7 7 4 3 -4 12 -2 20 5 19 15
31 1 35 -41 3 -35 36 -81 57 -81 15 0 14 -23 -1 -38 -14 -14 -10 -15 50 -12
23 1 57 -3 75 -8 17 -6 67 -13 110 -15 l77 -5 0 236 c0 130 -4 231 -8 224 -7
-10 -22 -11 -64 -4 l-56 9 -4 -29 c-4 -23 -1 -28 17 -28 17 0 22 -6 22 -28 0
-42 -52 -76 -101 -67 -38 8 -59 41 -35 56 11 7 10 9 -3 9 -10 0 -18 4 -18 9 0
12 -48 25 -82 22 -16 -1 -28 2 -28 8 0 5 -16 18 -35 27 -28 13 -38 14 -50 4
-12 -10 -15 -10 -15 1 0 10 -3 10 -12 1 -17 -17 -47 -15 -54 3 -8 21 17 74 33
68 7 -3 13 -11 13 -19 0 -8 8 -14 19 -14 21 0 31 35 31 111 0 27 3 49 8 49 4
0 19 11 34 25 30 26 29 55 -3 55 -23 0 -25 25 -4 46 8 9 15 12 15 7 0 -4 6 3
13 16 6 13 15 23 20 22 4 0 21 -1 37 -1 25 0 33 -6 47 -34 16 -35 41 -46 104
-46 19 0 29 -5 29 -15 0 -8 5 -15 11 -15 6 0 25 -16 43 -35 19 -19 43 -35 55
-35 21 0 21 2 21 240 l0 240 -45 0 c-43 0 -45 1 -45 28 0 35 27 62 63 62 l27
0 0 129 0 129 -97 6 c-125 7 -228 21 -273 36 -19 6 -75 15 -125 20 -49 5 -133
15 -185 21 -52 6 -158 11 -235 10 -168 -1 -298 13 -331 37 -13 9 -26 28 -30
42 -9 42 -18 51 -58 65 -38 13 -96 4 -96 -15 0 -14 -103 -112 -128 -121 -41
-16 -69 -10 -89 17 -31 42 -75 48 -438 64 -132 6 -278 17 -325 25 -47 8 -123
17 -170 21 -102 7 -159 19 -214 43 -22 10 -81 24 -131 30 -190 25 -342 54
-385 73 -63 29 -146 58 -210 73 -98 22 -143 36 -164 50 -12 8 -57 17 -101 21
-44 3 -111 16 -150 29 -123 40 -248 50 -436 36z m2416 -681 c8 -25 -3 -80 -16
-80 -5 0 -9 -6 -9 -13 0 -7 -25 -17 -65 -25 -85 -16 -108 -15 -165 5 l-47 17
66 23 c36 13 75 26 86 29 36 11 103 43 110 54 10 17 33 11 40 -10z m498 -51
c17 -15 32 -20 64 -17 29 2 44 -2 51 -12 12 -20 4 -40 -17 -40 -9 0 -26 -6
-36 -14 -16 -12 -17 -16 -6 -30 7 -9 14 -28 15 -43 3 -37 23 -73 41 -73 30 0
55 -33 55 -72 0 -32 -4 -40 -25 -48 -18 -7 -32 -6 -45 2 -15 9 -24 9 -44 -2
-14 -7 -26 -19 -26 -27 0 -7 -5 -13 -11 -13 -6 0 -8 8 -4 19 4 14 0 23 -14 31
-12 6 -20 14 -19 18 2 12 -14 42 -22 42 -9 0 -25 -40 -22 -54 2 -4 -3 -14 -9
-22 -7 -8 -7 -14 -1 -14 5 0 10 -11 10 -25 0 -23 -7 -29 -25 -22 -5 1 -8 16
-9 32 -1 44 -14 74 -34 80 -35 11 -42 31 -35 100 7 61 9 66 29 62 11 -3 30 -1
41 3 11 5 16 9 12 9 -12 1 19 31 32 31 6 0 11 7 11 15 0 8 -4 15 -8 15 -12 0
-12 42 -1 57 6 6 8 17 4 23 -11 18 25 10 48 -11z m-800 -26 c-7 -2 -19 -2 -25
0 -7 3 -2 5 12 5 14 0 19 -2 13 -5z m-311 -40 c18 -16 21 -16 61 5 78 41 120
23 115 -48 -3 -43 -5 -45 -38 -50 -42 -6 -130 9 -130 22 0 6 -17 7 -40 3 -27
-5 -46 -3 -56 6 -10 8 -18 9 -22 2 -10 -15 -117 -16 -141 -1 -22 14 -29 48 -9
48 6 0 20 8 31 18 12 11 42 19 86 22 75 6 115 -2 143 -27z m-1226 10 c14 -9
42 -16 65 -15 49 2 189 -49 189 -69 0 -4 -15 -11 -32 -14 -18 -4 -38 -12 -45
-17 -7 -5 -22 -7 -34 -3 -14 5 -37 -1 -67 -16 -33 -17 -47 -20 -50 -11 -4 14
-42 17 -42 3 0 -21 -53 -18 -87 4 -18 13 -38 25 -42 27 -5 2 -11 12 -13 23 -1
11 -7 23 -13 27 -6 5 -5 8 3 8 6 0 12 9 12 20 0 13 7 20 19 20 10 0 24 7 31
15 17 20 74 19 106 -2z m882 -87 c15 -15 13 -16 -21 -16 -28 0 -37 4 -38 18 0
14 -2 14 -7 2 -4 -8 -18 -16 -32 -18 -14 -1 -26 -7 -28 -12 -6 -16 -28 -11
-46 9 -31 34 -11 43 76 38 55 -3 85 -10 96 -21z m2422 -21 c0 -15 -15 -35 -26
-35 -8 0 -14 -9 -14 -21 0 -11 -4 -17 -10 -14 -5 3 -10 1 -10 -4 0 -6 -11 -11
-25 -11 -23 0 -24 2 -13 25 6 14 17 25 24 25 8 0 11 6 8 15 -4 10 2 18 17 24
21 7 49 5 49 -4z m-3880 -239 c0 -8 -4 -18 -10 -21 -5 -3 -10 3 -10 14 0 12 5
21 10 21 6 0 10 -6 10 -14z m3250 -60 c-6 -6 -10 -25 -10 -43 0 -18 -5 -33
-11 -33 -5 0 -7 -5 -4 -11 4 -6 -1 -17 -11 -24 -11 -9 -14 -14 -6 -15 10 0 10
-4 0 -19 -14 -23 -52 -37 -45 -16 3 7 -2 23 -10 35 -13 19 -17 20 -24 7 -6
-10 -17 -13 -31 -9 -14 3 -19 1 -14 -6 4 -6 -2 -20 -13 -31 -16 -16 -17 -22
-6 -31 8 -6 11 -18 8 -26 -3 -8 5 -17 22 -24 14 -5 24 -14 21 -18 -10 -16 -88
-4 -118 18 l-31 23 25 15 c22 13 25 20 20 57 l-4 42 53 14 c30 8 60 13 66 13
7 -1 10 2 7 7 -3 5 8 14 25 20 22 8 31 18 33 35 0 13 1 30 2 37 2 20 28 25 48
8 12 -10 14 -19 8 -25z m-3099 13 c14 -26 22 -96 14 -117 -5 -13 -8 -12 -23 4
-10 10 -28 34 -41 52 l-24 34 28 24 c34 29 32 29 46 3z m2846 -4 c0 -18 -28
-16 -35 3 -2 7 5 12 16 12 10 0 19 -7 19 -15z m940 -117 c-3 -7 -5 -2 -5 12 0
14 2 19 5 13 2 -7 2 -19 0 -25z m-971 -35 c-4 -26 -36 -29 -36 -4 0 14 6 21
19 21 13 0 18 -6 17 -17z m845 -16 c9 -7 19 -22 23 -34 5 -16 2 -23 -15 -28
-30 -10 -52 15 -43 48 7 30 12 32 35 14z m149 -17 c0 -5 -4 -10 -10 -10 -5 0
-10 5 -10 10 0 6 5 10 10 10 6 0 10 -4 10 -10z m-3775 -79 c28 -6 30 -10 32
-51 1 -25 9 -59 17 -75 22 -42 20 -52 -16 -89 -52 -52 -72 -60 -112 -41 -31
15 -34 21 -40 73 -10 84 -10 93 6 136 22 56 39 63 113 47z m4013 -318 c-2 -10
-10 -18 -18 -18 -8 0 -16 8 -18 18 -2 12 3 17 18 17 15 0 20 -5 18 -17z m-48
-229 c0 -8 -5 -12 -10 -9 -6 4 -8 11 -5 16 9 14 15 11 15 -7z"/>
<path d="M5098 1888 c-17 -26 -17 -28 0 -44 16 -17 17 -17 20 4 2 12 2 32 0
44 -3 22 -3 22 -20 -4z"/>
</g>
</svg>
